<?xml version="1.0" encoding="utf-8" ?>
<svg xmlns="http://www.w3.org/2000/svg" xmlns:xlink="http://www.w3.org/1999/xlink" width="512" height="512">
	<path fill="#0D3B66" d="M0 0L0 512L512 512L512 0L0 0Z"/>
	<path fill="#F4D35E" d="M329.125 301.668L183.853 301.754C182.347 301.749 180.722 301.845 179.236 301.61C165.699 299.47 154.38 287.927 154.343 273.964L154.351 117.282C154.35 115.363 154.213 113.297 154.492 111.403C156.305 99.1074 166.09 88.0043 178.832 86.7179C180.207 86.5791 181.668 86.6498 183.053 86.6483L327.509 86.6322C329.748 86.6312 332.074 86.518 334.291 86.8731C346.845 88.8841 357.3 100.301 357.572 113.138L357.578 269.756C357.577 272.417 357.676 275.069 357.262 277.707C355.056 291.735 343.038 301.428 329.125 301.668ZM189.084 112.752C179.214 113.204 179.862 120.18 179.868 127.836L179.927 266.85C180.141 271.169 183.666 275.175 188.097 275.352L323.173 275.384C327.634 275.031 330.884 272.352 331.892 268.003L331.938 267.813C332.203 266.643 332.113 265.351 332.113 264.157L332.092 121.052C331.748 113.481 326.304 112.729 319.958 112.749L189.084 112.752Z"/>
	<path fill="#F4D35E" d="M236.686 233.454C233.665 232.539 231.292 230.341 228.865 228.424L202.15 207.655C198.045 204.304 195.6 200.765 195.085 195.328C193.923 183.03 198.938 180.283 207.533 173.715L228.166 157.902C231.724 155.131 234.642 152.424 239.342 152.016C250.817 151.339 256.567 165.737 249.278 174.071C248.172 175.336 246.853 176.297 245.518 177.298L224.712 192.655L240.765 204.917C247.422 210.021 254.561 213.984 252.264 224.146C250.67 231.198 243.552 235.011 236.686 233.454Z"/>
	<path fill="#F4D35E" d="M289.556 233.646C285.638 233.607 281.575 230.2 278.574 228.009L255.713 210.896C251.543 207.735 249.325 204.06 248.576 198.888L248.491 198.262C248.335 196.847 248.4 195.348 248.389 193.924C248.291 181.88 252.056 179.79 260.92 173.183L280.072 158.821C283.507 156.133 286.291 153.973 290.794 153.524L293.087 153.558C303.637 154.693 307.43 167.648 300.998 175.229C299.336 177.188 297.08 178.455 294.961 179.85L275.61 194.209L295.475 208.484C297.292 209.785 299.098 211.067 300.564 212.779C307.628 221.027 301.65 234.642 289.556 233.646Z"/>
	<path fill="#FAF0CA" d="M182.775 456L182.775 331L207.929 331C216.262 331 223.155 332.106 228.608 334.318C234.061 336.53 238.099 340.079 240.722 344.966C243.346 349.853 244.657 356.257 244.657 364.179C244.657 369.014 244.143 373.412 243.114 377.373C242.085 381.334 240.439 384.678 238.176 387.404C235.912 390.131 232.929 392.111 229.225 393.346L246.972 456L230.151 456L213.793 397.358L200.213 397.358L200.213 456L182.775 456ZM200.213 384.858L206.849 384.858C211.787 384.858 215.799 384.241 218.886 383.006C221.972 381.772 224.236 379.662 225.676 376.679C227.116 373.696 227.836 369.529 227.836 364.179C227.836 356.875 226.499 351.602 223.824 348.361C221.149 345.12 215.851 343.5 207.929 343.5L200.213 343.5L200.213 384.858ZM262.867 456L262.867 331L280.306 331L280.306 389.951L309.009 331L325.213 331L300.522 386.093L329.225 456L312.25 456L288.33 397.358L280.306 411.864L280.306 456L262.867 456Z"/>
</svg>
